# Blender v3.1.2 OBJ File: ''
# www.blender.org
mtllib Sand.mtl
o Icosphere
v 0.010891 -1.039943 0.000000
v 0.742909 -0.457354 0.536240
v -0.277030 -0.468035 0.867662
v -0.907394 -0.474632 0.000000
v -0.277030 -0.468035 -0.867662
v 0.742909 -0.457354 -0.536240
v 0.277030 0.468035 0.867662
v -0.742909 0.457354 0.536240
v -0.742909 0.457354 -0.536240
v 0.277030 0.468035 -0.867662
v 0.907394 0.474632 0.000000
v -0.010891 1.039943 0.000000
v -0.156431 -0.886367 0.509995
v 0.443070 -0.880089 0.315192
v 0.273837 -0.543929 0.825192
v 0.873339 -0.537649 0.000000
v 0.443070 -0.880089 -0.315192
v -0.526951 -0.890245 0.000000
v -0.696189 -0.554086 0.509997
v -0.156431 -0.886367 -0.509995
v -0.696189 -0.554086 -0.509997
v 0.273837 -0.543929 -0.825192
v 0.970026 0.010158 0.315193
v 0.970026 0.010158 -0.315193
v 0.000000 0.000000 1.020000
v 0.599508 0.006278 0.825197
v -0.970026 -0.010158 0.315193
v -0.599508 -0.006278 0.825197
v -0.599508 -0.006278 -0.825197
v -0.970026 -0.010158 -0.315193
v 0.599508 0.006278 -0.825197
v 0.000000 0.000000 -1.020000
v 0.696189 0.554086 0.509997
v -0.273837 0.543929 0.825192
v -0.873339 0.537649 0.000000
v -0.273837 0.543929 -0.825192
v 0.696189 0.554086 -0.509997
v 0.156431 0.886367 0.509995
v 0.526951 0.890245 0.000000
v -0.443070 0.880089 0.315192
v -0.443070 0.880089 -0.315192
v 0.156431 0.886367 -0.509995
vt 0.181819 0.000000
vt 0.227273 0.078731
vt 0.136365 0.078731
vt 0.272728 0.157461
vt 0.318182 0.078731
vt 0.363637 0.157461
vt 0.909091 0.000000
vt 0.954545 0.078731
vt 0.863636 0.078731
vt 0.727273 0.000000
vt 0.772727 0.078731
vt 0.681818 0.078731
vt 0.545455 0.000000
vt 0.590909 0.078731
vt 0.500000 0.078731
vt 0.318182 0.236191
vt 0.090910 0.157461
vt 0.181819 0.157461
vt 0.136365 0.236191
vt 0.818182 0.157461
vt 0.909091 0.157461
vt 0.863636 0.236191
vt 0.636364 0.157461
vt 0.727273 0.157461
vt 0.681818 0.236191
vt 0.454546 0.157461
vt 0.545455 0.157461
vt 0.500000 0.236191
vt 0.227273 0.236191
vt 0.045455 0.236191
vt 0.772727 0.236191
vt 0.590909 0.236191
vt 0.409092 0.236191
vt 0.181819 0.314921
vt 0.272728 0.314921
vt 0.227273 0.393651
vt 0.000000 0.314921
vt 0.090910 0.314921
vt 0.045455 0.393651
vt 0.727273 0.314921
vt 0.818182 0.314921
vt 0.772727 0.393651
vt 0.545455 0.314921
vt 0.636364 0.314921
vt 0.590909 0.393651
vt 0.363637 0.314921
vt 0.454546 0.314921
vt 0.409092 0.393651
vt 0.500000 0.393651
vt 0.454546 0.472382
vt 0.681818 0.393651
vt 0.636364 0.472382
vt 0.863636 0.393651
vt 0.818182 0.472382
vt 0.909091 0.314921
vt 0.136365 0.393651
vt 0.090910 0.472382
vt 0.318182 0.393651
vt 0.272728 0.472382
vt 0.954545 0.236191
vt 1.000000 0.157461
vt 0.409092 0.078731
vt 0.363637 0.000000
vn 0.1140 -0.9403 0.3206
vn 0.7130 -0.6470 0.2703
vn -0.2628 -0.9443 0.1981
vn -0.2628 -0.9443 -0.1981
vn 0.1140 -0.9403 -0.3206
vn 0.9102 -0.3152 0.2686
vn 0.0282 -0.3244 0.9455
vn -0.8881 -0.3340 0.3158
vn -0.5724 -0.3307 -0.7503
vn 0.5391 -0.3191 -0.7795
vn 0.8041 -0.1148 0.5833
vn -0.3054 -0.1265 0.9438
vn -0.9910 -0.1336 0.0000
vn -0.3054 -0.1265 -0.9438
vn 0.8041 -0.1148 -0.5833
vn 0.4055 0.6587 0.6337
vn -0.4821 0.6494 0.5880
vn -0.7130 0.6470 -0.2703
vn 0.0320 0.6548 -0.7551
vn 0.7233 0.6621 -0.1964
vn 0.2628 0.9443 -0.1981
vn 0.4888 0.7941 -0.3612
vn 0.4055 0.6587 -0.6337
vn -0.1140 0.9403 -0.3206
vn -0.1981 0.7869 -0.5844
vn -0.4821 0.6494 -0.5880
vn -0.3469 0.9379 0.0000
vn -0.6227 0.7824 0.0000
vn -0.7130 0.6470 0.2703
vn -0.1140 0.9403 0.3206
vn -0.1981 0.7869 0.5844
vn 0.0320 0.6548 0.7551
vn 0.2628 0.9443 0.1981
vn 0.4888 0.7941 0.3612
vn 0.7233 0.6621 0.1964
vn 0.8881 0.3340 -0.3158
vn 0.7932 0.1924 -0.5777
vn 0.5724 0.3307 -0.7503
vn -0.0282 0.3244 -0.9455
vn -0.3056 0.1809 -0.9348
vn -0.5391 0.3191 -0.7795
vn -0.9102 0.3152 -0.2686
vn -0.9848 0.1738 0.0000
vn -0.9102 0.3152 0.2686
vn -0.5391 0.3191 0.7795
vn -0.3056 0.1809 0.9348
vn -0.0282 0.3244 0.9455
vn 0.5724 0.3307 0.7503
vn 0.7932 0.1924 0.5777
vn 0.8881 0.3340 0.3158
vn 0.3054 0.1265 -0.9438
vn 0.3056 -0.1809 -0.9348
vn 0.0282 -0.3244 -0.9455
vn -0.8041 0.1148 -0.5833
vn -0.7932 -0.1924 -0.5777
vn -0.8881 -0.3340 -0.3158
vn -0.8041 0.1148 0.5833
vn -0.7932 -0.1924 0.5777
vn -0.5724 -0.3307 0.7503
vn 0.3054 0.1265 0.9438
vn 0.3056 -0.1809 0.9348
vn 0.5391 -0.3191 0.7795
vn 0.9910 0.1336 0.0000
vn 0.9848 -0.1738 0.0000
vn 0.9102 -0.3152 -0.2686
vn 0.4821 -0.6494 -0.5880
vn 0.1981 -0.7869 -0.5844
vn -0.0320 -0.6548 -0.7551
vn -0.4055 -0.6587 -0.6337
vn -0.4888 -0.7941 -0.3612
vn -0.7233 -0.6621 -0.1964
vn -0.7233 -0.6621 0.1964
vn -0.4888 -0.7941 0.3612
vn -0.4055 -0.6587 0.6337
vn 0.7130 -0.6470 -0.2703
vn 0.6227 -0.7824 0.0000
vn 0.3469 -0.9379 0.0000
vn -0.0320 -0.6548 0.7551
vn 0.1981 -0.7869 0.5844
vn 0.4821 -0.6494 0.5880
usemtl None
s off
f 1/1/1 14/2/1 13/3/1
f 2/4/2 14/5/2 16/6/2
f 1/7/3 13/8/3 18/9/3
f 1/10/4 18/11/4 20/12/4
f 1/13/5 20/14/5 17/15/5
f 2/4/6 16/6/6 23/16/6
f 3/17/7 15/18/7 25/19/7
f 4/20/8 19/21/8 27/22/8
f 5/23/9 21/24/9 29/25/9
f 6/26/10 22/27/10 31/28/10
f 2/4/11 23/16/11 26/29/11
f 3/17/12 25/19/12 28/30/12
f 4/20/13 27/22/13 30/31/13
f 5/23/14 29/25/14 32/32/14
f 6/26/15 31/28/15 24/33/15
f 7/34/16 33/35/16 38/36/16
f 8/37/17 34/38/17 40/39/17
f 9/40/18 35/41/18 41/42/18
f 10/43/19 36/44/19 42/45/19
f 11/46/20 37/47/20 39/48/20
f 39/48/21 42/49/21 12/50/21
f 39/48/22 37/47/22 42/49/22
f 37/47/23 10/43/23 42/49/23
f 42/45/24 41/51/24 12/52/24
f 42/45/25 36/44/25 41/51/25
f 36/44/26 9/40/26 41/51/26
f 41/42/27 40/53/27 12/54/27
f 41/42/28 35/41/28 40/53/28
f 35/41/29 8/55/29 40/53/29
f 40/39/30 38/56/30 12/57/30
f 40/39/31 34/38/31 38/56/31
f 34/38/32 7/34/32 38/56/32
f 38/36/33 39/58/33 12/59/33
f 38/36/34 33/35/34 39/58/34
f 33/35/35 11/46/35 39/58/35
f 24/33/36 37/47/36 11/46/36
f 24/33/37 31/28/37 37/47/37
f 31/28/38 10/43/38 37/47/38
f 32/32/39 36/44/39 10/43/39
f 32/32/40 29/25/40 36/44/40
f 29/25/41 9/40/41 36/44/41
f 30/31/42 35/41/42 9/40/42
f 30/31/43 27/22/43 35/41/43
f 27/22/44 8/55/44 35/41/44
f 28/30/45 34/38/45 8/37/45
f 28/30/46 25/19/46 34/38/46
f 25/19/47 7/34/47 34/38/47
f 26/29/48 33/35/48 7/34/48
f 26/29/49 23/16/49 33/35/49
f 23/16/50 11/46/50 33/35/50
f 31/28/51 32/32/51 10/43/51
f 31/28/52 22/27/52 32/32/52
f 22/27/53 5/23/53 32/32/53
f 29/25/54 30/31/54 9/40/54
f 29/25/55 21/24/55 30/31/55
f 21/24/56 4/20/56 30/31/56
f 27/22/57 28/60/57 8/55/57
f 27/22/58 19/21/58 28/60/58
f 19/21/59 3/61/59 28/60/59
f 25/19/60 26/29/60 7/34/60
f 25/19/61 15/18/61 26/29/61
f 15/18/62 2/4/62 26/29/62
f 23/16/63 24/33/63 11/46/63
f 23/16/64 16/6/64 24/33/64
f 16/6/65 6/26/65 24/33/65
f 17/15/66 22/27/66 6/26/66
f 17/15/67 20/14/67 22/27/67
f 20/14/68 5/23/68 22/27/68
f 20/12/69 21/24/69 5/23/69
f 20/12/70 18/11/70 21/24/70
f 18/11/71 4/20/71 21/24/71
f 18/9/72 19/21/72 4/20/72
f 18/9/73 13/8/73 19/21/73
f 13/8/74 3/61/74 19/21/74
f 16/6/75 17/62/75 6/26/75
f 16/6/76 14/5/76 17/62/76
f 14/5/77 1/63/77 17/62/77
f 13/3/78 15/18/78 3/17/78
f 13/3/79 14/2/79 15/18/79
f 14/2/80 2/4/80 15/18/80
o Icosphere.001
v -0.163176 -0.984808 0.059391
v 0.787260 -0.566078 0.306494
v -0.020354 -0.392431 0.966965
v -0.900692 -0.285106 0.327825
v -0.637145 -0.392431 -0.727655
v 0.406066 -0.566078 -0.740829
v 0.637145 0.392431 0.727655
v -0.406066 0.566078 0.740829
v -0.787260 0.566078 -0.306494
v 0.020354 0.392431 -0.966965
v 0.900692 0.285106 -0.327825
v 0.163176 0.984808 -0.059391
v -0.107876 -0.809521 0.603273
v 0.366824 -0.911587 0.215061
v 0.450776 -0.563397 0.748519
v 0.701416 -0.665462 -0.255295
v 0.142765 -0.911587 -0.400536
v -0.625325 -0.746436 0.227600
v -0.541380 -0.398246 0.761057
v -0.470414 -0.809521 -0.392792
v -0.903919 -0.398246 -0.235011
v -0.135825 -0.563397 -0.863152
v 0.992155 -0.165149 -0.012540
v 0.768095 -0.165149 -0.628139
v 0.362541 0.000000 0.996074
v 0.837249 -0.102068 0.607860
v -0.768095 0.165149 0.628139
v -0.250645 0.102068 1.003821
v -0.837249 0.102068 -0.607860
v -0.992155 0.165149 0.012540
v 0.250645 -0.102068 -1.003821
v -0.362541 0.000000 -0.996074
v 0.903919 0.398246 0.235011
v 0.135825 0.563397 0.863152
v -0.701416 0.665462 0.255295
v -0.450776 0.563397 -0.748519
v 0.541380 0.398246 -0.761057
v 0.470414 0.809521 0.392792
v 0.625325 0.746436 -0.227600
v -0.142765 0.911587 0.400536
v -0.366824 0.911587 -0.215061
v 0.107876 0.809521 -0.603273
vt 0.181819 0.000000
vt 0.227273 0.078731
vt 0.136365 0.078731
vt 0.272728 0.157461
vt 0.318182 0.078731
vt 0.363637 0.157461
vt 0.909091 0.000000
vt 0.954545 0.078731
vt 0.863636 0.078731
vt 0.727273 0.000000
vt 0.772727 0.078731
vt 0.681818 0.078731
vt 0.545455 0.000000
vt 0.590909 0.078731
vt 0.500000 0.078731
vt 0.318182 0.236191
vt 0.090910 0.157461
vt 0.181819 0.157461
vt 0.136365 0.236191
vt 0.818182 0.157461
vt 0.909091 0.157461
vt 0.863636 0.236191
vt 0.636364 0.157461
vt 0.727273 0.157461
vt 0.681818 0.236191
vt 0.454546 0.157461
vt 0.545455 0.157461
vt 0.500000 0.236191
vt 0.227273 0.236191
vt 0.045455 0.236191
vt 0.772727 0.236191
vt 0.590909 0.236191
vt 0.409092 0.236191
vt 0.181819 0.314921
vt 0.272728 0.314921
vt 0.227273 0.393651
vt 0.000000 0.314921
vt 0.090910 0.314921
vt 0.045455 0.393651
vt 0.727273 0.314921
vt 0.818182 0.314921
vt 0.772727 0.393651
vt 0.545455 0.314921
vt 0.636364 0.314921
vt 0.590909 0.393651
vt 0.363637 0.314921
vt 0.454546 0.314921
vt 0.409092 0.393651
vt 0.500000 0.393651
vt 0.454546 0.472382
vt 0.681818 0.393651
vt 0.636364 0.472382
vt 0.863636 0.393651
vt 0.818182 0.472382
vt 0.909091 0.314921
vt 0.136365 0.393651
vt 0.090910 0.472382
vt 0.318182 0.393651
vt 0.272728 0.472382
vt 0.954545 0.236191
vt 1.000000 0.157461
vt 0.409092 0.078731
vt 0.363637 0.000000
vn 0.0427 -0.9522 0.3025
vn 0.6290 -0.7763 0.0412
vn -0.3399 -0.8845 0.3196
vn -0.4658 -0.8845 -0.0264
vn -0.1618 -0.9522 -0.2592
vn 0.8735 -0.4844 -0.0478
vn 0.2879 -0.3471 0.8925
vn -0.7799 -0.1718 0.6019
vn -0.8540 -0.2329 -0.4652
vn 0.1965 -0.4328 -0.8798
vn 0.9279 -0.2682 0.2590
vn 0.0002 -0.0742 0.9972
vn -0.9386 0.0486 0.3416
vn -0.6408 -0.0742 -0.7641
vn 0.5444 -0.2682 -0.7948
vn 0.7047 0.5937 0.3886
vn -0.1427 0.7476 0.6486
vn -0.6290 0.7763 -0.0412
vn -0.1011 0.6658 -0.7392
vn 0.7167 0.5270 -0.4568
vn 0.3399 0.8845 -0.3196
vn 0.4723 0.7022 -0.5327
vn 0.2900 0.5937 -0.7506
vn -0.0427 0.9522 -0.3025
vn -0.2346 0.8305 -0.5052
vn -0.5263 0.7476 -0.4051
vn -0.1526 0.9867 0.0556
vn -0.4321 0.8880 0.1573
vn -0.4553 0.7763 0.4359
vn 0.1618 0.9522 0.2592
vn 0.1450 0.8305 0.5378
vn 0.3977 0.6658 0.6313
vn 0.4658 0.8845 0.0264
vn 0.7042 0.7022 0.1044
vn 0.8426 0.5270 -0.1108
vn 0.7799 0.1718 -0.6019
vn 0.5906 0.0476 -0.8055
vn 0.3552 0.2329 -0.9053
vn -0.2879 0.3471 -0.8925
vn -0.5803 0.2497 -0.7752
vn -0.7160 0.4328 -0.5477
vn -0.8735 0.4844 0.0478
vn -0.8784 0.3553 0.3197
vn -0.6999 0.4844 0.5249
vn -0.1965 0.4328 0.8798
vn 0.0538 0.2497 0.9668
vn 0.3532 0.3471 0.8688
vn 0.8540 0.2329 0.4652
vn 0.9702 0.0476 0.2374
vn 0.9843 0.1718 -0.0402
vn -0.0002 0.0742 -0.9972
vn -0.0538 -0.2497 -0.9668
vn -0.3532 -0.3471 -0.8688
vn -0.9279 0.2682 -0.2590
vn -0.9702 -0.0476 -0.2374
vn -0.9843 -0.1718 0.0402
vn -0.5444 0.2682 0.7948
vn -0.5906 -0.0476 0.8055
vn -0.3552 -0.2329 0.9053
vn 0.6408 0.0742 0.7641
vn 0.5803 -0.2497 0.7752
vn 0.7160 -0.4328 0.5477
vn 0.9386 -0.0486 -0.3416
vn 0.8784 -0.3553 -0.3197
vn 0.6999 -0.4844 -0.5249
vn 0.1427 -0.7476 -0.6486
vn -0.1450 -0.8305 -0.5378
vn -0.3977 -0.6658 -0.6313
vn -0.7047 -0.5937 -0.3886
vn -0.7042 -0.7022 -0.1044
vn -0.8426 -0.5270 0.1108
vn -0.7167 -0.5270 0.4568
vn -0.4723 -0.7022 0.5327
vn -0.2900 -0.5937 0.7506
vn 0.4553 -0.7763 -0.4359
vn 0.4321 -0.8880 -0.1573
vn 0.1526 -0.9867 -0.0556
vn 0.1011 -0.6658 0.7392
vn 0.2346 -0.8305 0.5052
vn 0.5263 -0.7476 0.4051
usemtl None
s off
f 43/64/81 56/65/81 55/66/81
f 44/67/82 56/68/82 58/69/82
f 43/70/83 55/71/83 60/72/83
f 43/73/84 60/74/84 62/75/84
f 43/76/85 62/77/85 59/78/85
f 44/67/86 58/69/86 65/79/86
f 45/80/87 57/81/87 67/82/87
f 46/83/88 61/84/88 69/85/88
f 47/86/89 63/87/89 71/88/89
f 48/89/90 64/90/90 73/91/90
f 44/67/91 65/79/91 68/92/91
f 45/80/92 67/82/92 70/93/92
f 46/83/93 69/85/93 72/94/93
f 47/86/94 71/88/94 74/95/94
f 48/89/95 73/91/95 66/96/95
f 49/97/96 75/98/96 80/99/96
f 50/100/97 76/101/97 82/102/97
f 51/103/98 77/104/98 83/105/98
f 52/106/99 78/107/99 84/108/99
f 53/109/100 79/110/100 81/111/100
f 81/111/101 84/112/101 54/113/101
f 81/111/102 79/110/102 84/112/102
f 79/110/103 52/106/103 84/112/103
f 84/108/104 83/114/104 54/115/104
f 84/108/105 78/107/105 83/114/105
f 78/107/106 51/103/106 83/114/106
f 83/105/107 82/116/107 54/117/107
f 83/105/108 77/104/108 82/116/108
f 77/104/109 50/118/109 82/116/109
f 82/102/110 80/119/110 54/120/110
f 82/102/111 76/101/111 80/119/111
f 76/101/112 49/97/112 80/119/112
f 80/99/113 81/121/113 54/122/113
f 80/99/114 75/98/114 81/121/114
f 75/98/115 53/109/115 81/121/115
f 66/96/116 79/110/116 53/109/116
f 66/96/117 73/91/117 79/110/117
f 73/91/118 52/106/118 79/110/118
f 74/95/119 78/107/119 52/106/119
f 74/95/120 71/88/120 78/107/120
f 71/88/121 51/103/121 78/107/121
f 72/94/122 77/104/122 51/103/122
f 72/94/123 69/85/123 77/104/123
f 69/85/124 50/118/124 77/104/124
f 70/93/125 76/101/125 50/100/125
f 70/93/126 67/82/126 76/101/126
f 67/82/127 49/97/127 76/101/127
f 68/92/128 75/98/128 49/97/128
f 68/92/129 65/79/129 75/98/129
f 65/79/130 53/109/130 75/98/130
f 73/91/131 74/95/131 52/106/131
f 73/91/132 64/90/132 74/95/132
f 64/90/133 47/86/133 74/95/133
f 71/88/134 72/94/134 51/103/134
f 71/88/135 63/87/135 72/94/135
f 63/87/136 46/83/136 72/94/136
f 69/85/137 70/123/137 50/118/137
f 69/85/138 61/84/138 70/123/138
f 61/84/139 45/124/139 70/123/139
f 67/82/140 68/92/140 49/97/140
f 67/82/141 57/81/141 68/92/141
f 57/81/142 44/67/142 68/92/142
f 65/79/143 66/96/143 53/109/143
f 65/79/144 58/69/144 66/96/144
f 58/69/145 48/89/145 66/96/145
f 59/78/146 64/90/146 48/89/146
f 59/78/147 62/77/147 64/90/147
f 62/77/148 47/86/148 64/90/148
f 62/75/149 63/87/149 47/86/149
f 62/75/150 60/74/150 63/87/150
f 60/74/151 46/83/151 63/87/151
f 60/72/152 61/84/152 46/83/152
f 60/72/153 55/71/153 61/84/153
f 55/71/154 45/124/154 61/84/154
f 58/69/155 59/125/155 48/89/155
f 58/69/156 56/68/156 59/125/156
f 56/68/157 43/126/157 59/125/157
f 55/66/158 57/81/158 45/80/158
f 55/66/159 56/65/159 57/81/159
f 56/65/160 44/67/160 57/81/160
o Icosphere.002
v -0.414206 -1.006108 0.000000
v 0.433499 -0.683937 0.362751
v -0.459770 -0.360579 0.586948
v -1.011846 -0.160725 0.000000
v -0.459770 -0.360579 -0.586948
v 0.433499 -0.683937 -0.362751
v 0.359770 0.360579 0.586948
v -0.533499 0.683937 0.362751
v -0.533499 0.683937 -0.362751
v 0.359770 0.360579 -0.586948
v 0.911846 0.160725 0.000000
v 0.314206 1.006108 0.000000
v -0.504931 -0.803319 0.344997
v 0.020116 -0.993383 0.213218
v -0.006663 -0.613950 0.558218
v 0.518385 -0.804013 0.000000
v 0.020116 -0.993383 -0.213218
v -0.829433 -0.685848 0.000000
v -0.856218 -0.306414 0.344998
v -0.504931 -0.803319 -0.344997
v -0.856218 -0.306414 -0.344998
v -0.006663 -0.613950 -0.558218
v 0.799555 -0.307535 0.213219
v 0.799555 -0.307535 -0.213219
v -0.050000 0.000000 0.690000
v 0.475053 -0.190067 0.558222
v -0.899555 0.307535 0.213219
v -0.575053 0.190067 0.558222
v -0.575053 0.190067 -0.558222
v -0.899555 0.307535 -0.213219
v 0.475053 -0.190067 -0.558222
v -0.050000 0.000000 -0.690000
v 0.756218 0.306414 0.344998
v -0.093337 0.613950 0.558218
v -0.618385 0.804013 0.000000
v -0.093337 0.613950 -0.558218
v 0.756218 0.306414 -0.344998
v 0.404931 0.803319 0.344997
v 0.729433 0.685848 0.000000
v -0.120116 0.993383 0.213218
v -0.120116 0.993383 -0.213218
v 0.404931 0.803319 -0.344997
vt 0.181819 0.000000
vt 0.227273 0.078731
vt 0.136365 0.078731
vt 0.272728 0.157461
vt 0.318182 0.078731
vt 0.363637 0.157461
vt 0.909091 0.000000
vt 0.954545 0.078731
vt 0.863636 0.078731
vt 0.727273 0.000000
vt 0.772727 0.078731
vt 0.681818 0.078731
vt 0.545455 0.000000
vt 0.590909 0.078731
vt 0.500000 0.078731
vt 0.318182 0.236191
vt 0.090910 0.157461
vt 0.181819 0.157461
vt 0.136365 0.236191
vt 0.818182 0.157461
vt 0.909091 0.157461
vt 0.863636 0.236191
vt 0.636364 0.157461
vt 0.727273 0.157461
vt 0.681818 0.236191
vt 0.454546 0.157461
vt 0.545455 0.157461
vt 0.500000 0.236191
vt 0.227273 0.236191
vt 0.045455 0.236191
vt 0.772727 0.236191
vt 0.590909 0.236191
vt 0.409092 0.236191
vt 0.181819 0.314921
vt 0.272728 0.314921
vt 0.227273 0.393651
vt 0.000000 0.314921
vt 0.090910 0.314921
vt 0.045455 0.393651
vt 0.727273 0.314921
vt 0.818182 0.314921
vt 0.772727 0.393651
vt 0.545455 0.314921
vt 0.636364 0.314921
vt 0.590909 0.393651
vt 0.363637 0.314921
vt 0.454546 0.314921
vt 0.409092 0.393651
vt 0.500000 0.393651
vt 0.454546 0.472382
vt 0.681818 0.393651
vt 0.636364 0.472382
vt 0.863636 0.393651
vt 0.818182 0.472382
vt 0.909091 0.314921
vt 0.136365 0.393651
vt 0.090910 0.472382
vt 0.318182 0.393651
vt 0.272728 0.472382
vt 0.954545 0.236191
vt 1.000000 0.157461
vt 0.409092 0.078731
vt 0.363637 0.000000
vn -0.1990 -0.8668 0.4572
vn 0.4651 -0.8022 0.3744
vn -0.5842 -0.7574 0.2916
vn -0.5842 -0.7574 -0.2916
vn -0.1990 -0.8668 -0.4572
vn 0.7361 -0.5722 0.3616
vn -0.0575 -0.2134 0.9753
vn -0.9070 0.0262 0.4202
vn -0.5264 -0.0660 -0.8477
vn 0.3269 -0.3715 -0.8690
vn 0.6283 -0.3314 0.7038
vn -0.2436 -0.0004 0.9699
vn -0.9724 0.2332 0.0000
vn -0.2436 -0.0004 -0.9699
vn 0.6283 -0.3314 -0.7038
vn 0.5205 0.3680 0.7705
vn -0.2209 0.6475 0.7293
vn -0.4651 0.8022 -0.3744
vn 0.1990 0.4543 -0.8684
vn 0.9078 0.3154 -0.2764
vn 0.5842 0.7574 -0.2916
vn 0.7090 0.5012 -0.4962
vn 0.5205 0.3680 -0.7705
vn 0.1990 0.8668 -0.4572
vn 0.0591 0.6738 -0.7365
vn -0.2209 0.6475 -0.7293
vn -0.0293 0.9996 0.0000
vn -0.3553 0.9348 0.0000
vn -0.4651 0.8022 0.3744
vn 0.1990 0.8668 0.4572
vn 0.0591 0.6738 0.7365
vn 0.1990 0.4543 0.8684
vn 0.5842 0.7574 0.2916
vn 0.7090 0.5012 0.4962
vn 0.9078 0.3154 0.2764
vn 0.9070 -0.0262 -0.4202
vn 0.7075 -0.1002 -0.6996
vn 0.5264 0.0660 -0.8477
vn 0.0575 0.2134 -0.9753
vn -0.1717 0.1951 -0.9656
vn -0.3269 0.3715 -0.8690
vn -0.7361 0.5722 -0.3616
vn -0.8701 0.4928 0.0000
vn -0.7361 0.5722 0.3616
vn -0.3269 0.3715 0.8690
vn -0.1717 0.1951 0.9656
vn 0.0575 0.2134 0.9753
vn 0.5264 0.0660 0.8477
vn 0.7075 -0.1002 0.6996
vn 0.9070 -0.0262 0.4202
vn 0.2436 0.0004 -0.9699
vn 0.1717 -0.1951 -0.9656
vn -0.0575 -0.2134 -0.9753
vn -0.6283 0.3314 -0.7038
vn -0.7075 0.1002 -0.6996
vn -0.9070 0.0262 -0.4202
vn -0.6283 0.3314 0.7038
vn -0.7075 0.1002 0.6996
vn -0.5264 -0.0660 0.8477
vn 0.2436 0.0004 0.9699
vn 0.1717 -0.1951 0.9656
vn 0.3269 -0.3715 0.8690
vn 0.9724 -0.2332 0.0000
vn 0.8701 -0.4928 0.0000
vn 0.7361 -0.5722 -0.3616
vn 0.2209 -0.6475 -0.7293
vn -0.0591 -0.6738 -0.7365
vn -0.1990 -0.4543 -0.8684
vn -0.5205 -0.3680 -0.7705
vn -0.7090 -0.5012 -0.4962
vn -0.9078 -0.3154 -0.2764
vn -0.9078 -0.3154 0.2764
vn -0.7090 -0.5012 0.4962
vn -0.5205 -0.3680 0.7705
vn 0.4651 -0.8022 -0.3744
vn 0.3553 -0.9348 0.0000
vn 0.0293 -0.9996 0.0000
vn -0.1990 -0.4543 0.8684
vn -0.0591 -0.6738 0.7365
vn 0.2209 -0.6475 0.7293
usemtl None
s off
f 85/127/161 98/128/161 97/129/161
f 86/130/162 98/131/162 100/132/162
f 85/133/163 97/134/163 102/135/163
f 85/136/164 102/137/164 104/138/164
f 85/139/165 104/140/165 101/141/165
f 86/130/166 100/132/166 107/142/166
f 87/143/167 99/144/167 109/145/167
f 88/146/168 103/147/168 111/148/168
f 89/149/169 105/150/169 113/151/169
f 90/152/170 106/153/170 115/154/170
f 86/130/171 107/142/171 110/155/171
f 87/143/172 109/145/172 112/156/172
f 88/146/173 111/148/173 114/157/173
f 89/149/174 113/151/174 116/158/174
f 90/152/175 115/154/175 108/159/175
f 91/160/176 117/161/176 122/162/176
f 92/163/177 118/164/177 124/165/177
f 93/166/178 119/167/178 125/168/178
f 94/169/179 120/170/179 126/171/179
f 95/172/180 121/173/180 123/174/180
f 123/174/181 126/175/181 96/176/181
f 123/174/182 121/173/182 126/175/182
f 121/173/183 94/169/183 126/175/183
f 126/171/184 125/177/184 96/178/184
f 126/171/185 120/170/185 125/177/185
f 120/170/186 93/166/186 125/177/186
f 125/168/187 124/179/187 96/180/187
f 125/168/188 119/167/188 124/179/188
f 119/167/189 92/181/189 124/179/189
f 124/165/190 122/182/190 96/183/190
f 124/165/191 118/164/191 122/182/191
f 118/164/192 91/160/192 122/182/192
f 122/162/193 123/184/193 96/185/193
f 122/162/194 117/161/194 123/184/194
f 117/161/195 95/172/195 123/184/195
f 108/159/196 121/173/196 95/172/196
f 108/159/197 115/154/197 121/173/197
f 115/154/198 94/169/198 121/173/198
f 116/158/199 120/170/199 94/169/199
f 116/158/200 113/151/200 120/170/200
f 113/151/201 93/166/201 120/170/201
f 114/157/202 119/167/202 93/166/202
f 114/157/203 111/148/203 119/167/203
f 111/148/204 92/181/204 119/167/204
f 112/156/205 118/164/205 92/163/205
f 112/156/206 109/145/206 118/164/206
f 109/145/207 91/160/207 118/164/207
f 110/155/208 117/161/208 91/160/208
f 110/155/209 107/142/209 117/161/209
f 107/142/210 95/172/210 117/161/210
f 115/154/211 116/158/211 94/169/211
f 115/154/212 106/153/212 116/158/212
f 106/153/213 89/149/213 116/158/213
f 113/151/214 114/157/214 93/166/214
f 113/151/215 105/150/215 114/157/215
f 105/150/216 88/146/216 114/157/216
f 111/148/217 112/186/217 92/181/217
f 111/148/218 103/147/218 112/186/218
f 103/147/219 87/187/219 112/186/219
f 109/145/220 110/155/220 91/160/220
f 109/145/221 99/144/221 110/155/221
f 99/144/222 86/130/222 110/155/222
f 107/142/223 108/159/223 95/172/223
f 107/142/224 100/132/224 108/159/224
f 100/132/225 90/152/225 108/159/225
f 101/141/226 106/153/226 90/152/226
f 101/141/227 104/140/227 106/153/227
f 104/140/228 89/149/228 106/153/228
f 104/138/229 105/150/229 89/149/229
f 104/138/230 102/137/230 105/150/230
f 102/137/231 88/146/231 105/150/231
f 102/135/232 103/147/232 88/146/232
f 102/135/233 97/134/233 103/147/233
f 97/134/234 87/187/234 103/147/234
f 100/132/235 101/188/235 90/152/235
f 100/132/236 98/131/236 101/188/236
f 98/131/237 85/189/237 101/188/237
f 97/129/238 99/144/238 87/143/238
f 97/129/239 98/128/239 99/144/239
f 98/128/240 86/130/240 99/144/240
